<?xml version="1.0" ?><svg id="Layer_1" style="enable-background:new 0 0 48 48;" version="1.1" viewBox="0 0 48 48" xml:space="preserve" xmlns="http://www.w3.org/2000/svg" xmlns:xlink="http://www.w3.org/1999/xlink"><style type="text/css">
	.st0{fill:#D0D2D3;}
	.st1{fill:#231F20;}
	.st2{fill:#F6921E;}
	.st3{fill:#6D6E70;}
	.st4{fill:#BE1E2D;}
	.st5{fill:#F1F1F2;}
	.st6{fill:#404041;}
	.st7{fill:#A6A8AB;}
	.st8{fill:#1B75BB;}
	.st9{fill:#FFDD15;}
	.st10{fill:#F05A28;}
	.st11{fill:#00A69C;}
</style><g><g><circle class="st4" cx="23.79" cy="24.5" r="9.09"/><path class="st1" d="M23.79,34.1c-5.29,0-9.59-4.3-9.59-9.59s4.3-9.59,9.59-9.59s9.59,4.3,9.59,9.59S29.08,34.1,23.79,34.1z     M23.79,15.91c-4.74,0-8.59,3.86-8.59,8.59c0,4.74,3.86,8.59,8.59,8.59s8.59-3.86,8.59-8.59C32.38,19.77,28.53,15.91,23.79,15.91z    "/></g><g><g><path class="st2" d="M24,5.26C13.65,5.26,5.26,13.65,5.26,24S13.65,42.74,24,42.74c10.35,0,18.74-8.39,18.74-18.74     S34.35,5.26,24,5.26z M22.57,28.2c0,1.12-0.91,2.03-2.03,2.03s-2.03-0.91-2.03-2.03V19.8c0-1.12,0.91-2.03,2.03-2.03     s2.03,0.91,2.03,2.03V28.2z M29.48,28.2c0,1.12-0.91,2.03-2.03,2.03s-2.03-0.91-2.03-2.03V19.8c0-1.12,0.91-2.03,2.03-2.03     s2.03,0.91,2.03,2.03V28.2z"/><path class="st1" d="M24,43.24C13.39,43.24,4.76,34.61,4.76,24C4.76,13.39,13.39,4.76,24,4.76S43.24,13.39,43.24,24     C43.24,34.61,34.61,43.24,24,43.24z M24,5.76C13.94,5.76,5.76,13.94,5.76,24S13.94,42.24,24,42.24S42.24,34.06,42.24,24     S34.06,5.76,24,5.76z M27.46,30.73c-1.39,0-2.53-1.13-2.53-2.53V19.8c0-1.39,1.13-2.52,2.53-2.52s2.53,1.13,2.53,2.52v8.41     C29.98,29.6,28.85,30.73,27.46,30.73z M27.46,18.27c-0.84,0-1.53,0.68-1.53,1.52v8.41c0,0.84,0.68,1.53,1.53,1.53     s1.53-0.68,1.53-1.53V19.8C28.98,18.96,28.3,18.27,27.46,18.27z M20.54,30.73c-1.39,0-2.53-1.13-2.53-2.53V19.8     c0-1.39,1.13-2.52,2.53-2.52s2.53,1.13,2.53,2.52v8.41C23.07,29.6,21.93,30.73,20.54,30.73z M20.54,18.27     c-0.84,0-1.53,0.68-1.53,1.52v8.41c0,0.84,0.68,1.53,1.53,1.53s1.53-0.68,1.53-1.53V19.8C22.07,18.96,21.38,18.27,20.54,18.27z"/></g><g><path class="st1" d="M24,41.26c-3.74,0-7.3-1.18-10.29-3.4c-0.22-0.17-0.27-0.48-0.1-0.7c0.17-0.22,0.48-0.27,0.7-0.1     c2.82,2.1,6.17,3.21,9.7,3.21c8.97,0,16.26-7.3,16.26-16.26c0-4.71-2.04-9.19-5.6-12.28c-0.21-0.18-0.23-0.5-0.05-0.71     c0.18-0.21,0.5-0.23,0.71-0.05C39.1,14.25,41.26,19,41.26,24C41.26,33.52,33.52,41.26,24,41.26z"/></g><g><path class="st1" d="M10.76,34.78c-0.15,0-0.3-0.07-0.39-0.19C7.99,31.54,6.74,27.87,6.74,24c0-9.52,7.75-17.26,17.26-17.26     c2.75,0,5.37,0.63,7.81,1.86c0.25,0.13,0.34,0.43,0.22,0.67c-0.13,0.25-0.43,0.34-0.67,0.22C29.06,8.33,26.59,7.74,24,7.74     c-8.97,0-16.26,7.3-16.26,16.26c0,3.65,1.18,7.1,3.42,9.97c0.17,0.22,0.13,0.53-0.09,0.7C10.97,34.75,10.86,34.78,10.76,34.78z"/></g></g></g></svg>