<?xml version="1.0" ?><svg id="Layer_1" style="enable-background:new 0 0 48 48;" version="1.1" viewBox="0 0 48 48" xml:space="preserve" xmlns="http://www.w3.org/2000/svg" xmlns:xlink="http://www.w3.org/1999/xlink"><style type="text/css">
	.st0{fill:#D0D2D3;}
	.st1{fill:#231F20;}
	.st2{fill:#F6921E;}
	.st3{fill:#6D6E70;}
	.st4{fill:#BE1E2D;}
	.st5{fill:#F1F1F2;}
	.st6{fill:#404041;}
	.st7{fill:#A6A8AB;}
	.st8{fill:#1B75BB;}
	.st9{fill:#FFDD15;}
	.st10{fill:#F05A28;}
	.st11{fill:#00A69C;}
</style><g><g><circle class="st2" cx="24" cy="24" r="18.8"/><path class="st1" d="M24,43.3C13.36,43.3,4.7,34.64,4.7,24S13.36,4.7,24,4.7S43.3,13.36,43.3,24S34.64,43.3,24,43.3z M24,5.7    C13.91,5.7,5.7,13.91,5.7,24c0,10.09,8.21,18.3,18.3,18.3c10.09,0,18.3-8.21,18.3-18.3C42.3,13.91,34.09,5.7,24,5.7z"/></g><g><path class="st1" d="M23.81,40.51c-9.06,0-16.43-7.37-16.43-16.43c0-1.67,0.25-3.31,0.74-4.89c0.38-1.21,0.89-2.37,1.54-3.47    c0.14-0.24,0.45-0.32,0.68-0.18c0.24,0.14,0.32,0.45,0.18,0.68c-0.61,1.03-1.1,2.13-1.45,3.26c-0.46,1.48-0.69,3.02-0.69,4.59    c0,8.51,6.92,15.43,15.43,15.43c6.58,0,12.45-4.18,14.59-10.4c0.09-0.26,0.38-0.4,0.64-0.31c0.26,0.09,0.4,0.38,0.31,0.64    C37.06,36.06,30.82,40.51,23.81,40.51z"/></g><g><path class="st1" d="M39.33,20.97c-0.23,0-0.43-0.16-0.49-0.39c-1.63-7.03-7.81-11.94-15.04-11.94c-1.57,0-3.11,0.23-4.59,0.69    c-2.64,0.82-4.56,2.21-5.7,3.24c-0.21,0.18-0.52,0.17-0.71-0.04c-0.18-0.21-0.17-0.52,0.04-0.71c1.75-1.56,3.85-2.76,6.07-3.45    c1.58-0.49,3.22-0.74,4.89-0.74c7.7,0,14.28,5.23,16.01,12.72c0.06,0.27-0.11,0.54-0.38,0.6C39.41,20.97,39.37,20.97,39.33,20.97z    "/></g><g><path class="st4" d="M18.35,31.34c4.11-2.25,8.22-4.49,12.32-6.74c0.76-0.42,0.74-1.52-0.04-1.91c-4.11-2.02-8.22-4.04-12.32-6.05    c-0.71-0.35-1.55,0.17-1.55,0.96v12.8C16.76,31.21,17.64,31.73,18.35,31.34z"/><path class="st1" d="M17.84,31.97c-0.28,0-0.55-0.07-0.8-0.22c-0.48-0.29-0.77-0.79-0.77-1.35V17.6c0-0.55,0.28-1.05,0.74-1.34    c0.47-0.29,1.04-0.32,1.53-0.08l12.32,6.05c0.53,0.26,0.87,0.79,0.88,1.38c0.01,0.59-0.3,1.13-0.82,1.42l-12.32,6.74l0,0    C18.36,31.91,18.1,31.97,17.84,31.97z M18.35,31.34L18.35,31.34L18.35,31.34z M17.84,17.03c-0.1,0-0.21,0.03-0.3,0.09    c-0.17,0.11-0.27,0.29-0.27,0.49v12.8c0,0.3,0.2,0.44,0.28,0.49c0.08,0.05,0.31,0.15,0.57,0.01l12.32-6.74    c0.19-0.11,0.3-0.3,0.3-0.52s-0.13-0.41-0.32-0.5l-12.32-6.05C18.01,17.05,17.92,17.03,17.84,17.03z"/></g></g></svg>