<?xml version='1.0' encoding='iso-8859-1'?>
<svg version="1.1" xmlns="http://www.w3.org/2000/svg" viewBox="0 0 32 32" xmlns:xlink="http://www.w3.org/1999/xlink" enable-background="new 0 0 32 32">
  <path d="m29,19.05c1.7,0 3-1.3 3-3s-1.3-3-3-3c-0.6,0-1.1,0.2-1.6,0.5-1.3,0.8-2.7,1.4-4.2,1.5-0.5,0-0.9,0-1.3,0h-15.2c-1.2,0-1.8-1.5-1-2.3l6.3-6.3c0.7-0.7 2-1.3 2.5-1.8 0.3-0.3 0.4-0.7 0.4-1.1 0-0.7-0.5-1.5-1.5-1.5-0.4,0-0.8,0.1-1.1,0.4-0.5,0.5-1.2,1.9-1.8,2.5l-10.2,10.4c-0.2,0.2-0.3,0.5-0.3,0.7 0,0.3 0.1,0.5 0.3,0.7l4,4c5.1,5.1 5.5,6.9 5.9,7.7 0.3,0.7 0.9,1.5 2.3,1.5s2.5-1.1 2.5-2.5c0-1.1-0.8-2-1.6-2.3-0.9-0.3-3.7-1.9-7.7-5.9-0.8-0.8-0.2-2.3 1-2.3h15.3c0.4,0 0.8,0 1.3,0 1.5,0.1 2.9,0.7 4.2,1.5 0.4,0.4 0.9,0.6 1.5,0.6z"/>
</svg>
