<?xml version="1.0" ?><svg id="Layer_1" style="enable-background:new 0 0 48 48;" version="1.1" viewBox="0 0 48 48" xml:space="preserve" xmlns="http://www.w3.org/2000/svg" xmlns:xlink="http://www.w3.org/1999/xlink"><style type="text/css">
	.st0{fill:#D0D2D3;}
	.st1{fill:#231F20;}
	.st2{fill:#F6921E;}
	.st3{fill:#6D6E70;}
	.st4{fill:#BE1E2D;}
	.st5{fill:#F1F1F2;}
	.st6{fill:#404041;}
	.st7{fill:#A6A8AB;}
	.st8{fill:#1B75BB;}
	.st9{fill:#FFDD15;}
	.st10{fill:#F05A28;}
	.st11{fill:#00A69C;}
</style><g><g><g><path class="st2" d="M12.58,31.47h7.41v-13.6h-7.28c-2.73,0-4.94,2.21-4.94,4.94v3.84C7.76,29.31,9.92,31.47,12.58,31.47z"/><path class="st1" d="M19.99,31.97h-7.41c-2.93,0-5.32-2.39-5.32-5.32v-3.84c0-3,2.44-5.44,5.44-5.44h7.28     c0.28,0,0.5,0.22,0.5,0.5v13.6C20.49,31.75,20.27,31.97,19.99,31.97z M12.71,18.37c-2.45,0-4.44,1.99-4.44,4.44v3.84     c0,2.38,1.94,4.32,4.32,4.32h6.91v-12.6H12.71z"/></g><g><path class="st3" d="M19.99,31.51c4.01,2.41,8.02,4.81,12.04,7.22V9.27c-4.02,2.92-8.04,5.83-12.06,8.75     C19.98,22.52,19.98,27.01,19.99,31.51z"/><path class="st1" d="M32.03,39.23c-0.09,0-0.18-0.02-0.26-0.07l-12.04-7.22c-0.15-0.09-0.24-0.25-0.24-0.43l-0.02-13.49     c0-0.16,0.08-0.31,0.21-0.41l12.05-8.75c0.15-0.11,0.35-0.13,0.52-0.04c0.17,0.09,0.27,0.26,0.27,0.45v29.46     c0,0.18-0.1,0.35-0.25,0.44C32.2,39.21,32.11,39.23,32.03,39.23z M20.49,31.22l11.04,6.62v-27.6l-11.05,8.02L20.49,31.22z"/></g><g><path class="st2" d="M32.2,27.92c1.79,0,3.25-1.45,3.25-3.25s-1.45-3.25-3.25-3.25V27.92z"/><path class="st1" d="M32.2,28.42c-0.28,0-0.5-0.22-0.5-0.5v-6.5c0-0.28,0.22-0.5,0.5-0.5c2.07,0,3.75,1.68,3.75,3.75     C35.95,26.74,34.26,28.42,32.2,28.42z M32.7,21.97v5.4c1.28-0.24,2.25-1.36,2.25-2.7C34.95,23.32,33.98,22.2,32.7,21.97z"/></g></g><g><polygon class="st4" points="40.24,19.42 38.25,17.43 33.01,22.66 27.89,17.54 25.9,19.53 31.02,24.65 25.94,29.73 27.93,31.72     33.01,26.64 38.21,31.84 40.2,29.85 35,24.65   "/><path class="st1" d="M38.21,32.33c-0.13,0-0.26-0.05-0.35-0.15l-4.84-4.84l-4.73,4.73c-0.2,0.2-0.51,0.2-0.71,0l-1.99-1.99    c-0.2-0.2-0.2-0.51,0-0.71l4.73-4.73l-4.77-4.77c-0.09-0.09-0.15-0.22-0.15-0.35s0.05-0.26,0.15-0.35l1.99-1.99    c0.2-0.2,0.51-0.2,0.71,0l4.77,4.77l4.88-4.88c0.2-0.2,0.51-0.2,0.71,0l1.99,1.99c0.2,0.2,0.2,0.51,0,0.71l-4.88,4.88l4.84,4.84    c0.2,0.2,0.2,0.51,0,0.71l-1.99,1.99C38.46,32.29,38.34,32.33,38.21,32.33z M33.01,26.14c0.13,0,0.26,0.05,0.35,0.15l4.84,4.84    l1.28-1.28L34.65,25c-0.2-0.2-0.2-0.51,0-0.71l4.88-4.88l-1.28-1.28l-4.88,4.88c-0.2,0.2-0.51,0.2-0.71,0l-4.77-4.77l-1.28,1.28    l4.77,4.77c0.2,0.2,0.2,0.51,0,0.71l-4.73,4.73l1.28,1.28l4.73-4.73C32.76,26.19,32.88,26.14,33.01,26.14z"/></g></g></svg>