<?xml version="1.0" ?><svg id="Layer_1" style="enable-background:new 0 0 48 48;" version="1.1" viewBox="0 0 48 48" xml:space="preserve" xmlns="http://www.w3.org/2000/svg" xmlns:xlink="http://www.w3.org/1999/xlink"><style type="text/css">
	.st0{fill:#D0D2D3;}
	.st1{fill:#231F20;}
	.st2{fill:#F6921E;}
	.st3{fill:#6D6E70;}
	.st4{fill:#BE1E2D;}
	.st5{fill:#F1F1F2;}
	.st6{fill:#404041;}
	.st7{fill:#A6A8AB;}
	.st8{fill:#1B75BB;}
	.st9{fill:#FFDD15;}
	.st10{fill:#F05A28;}
	.st11{fill:#00A69C;}
</style><g><g><path class="st2" d="M9.98,31.47h7.41v-13.6h-7.28c-2.73,0-4.94,2.21-4.94,4.94v3.84C5.16,29.31,7.32,31.47,9.98,31.47z"/><path class="st1" d="M17.39,31.97H9.98c-2.93,0-5.32-2.39-5.32-5.32v-3.84c0-3,2.44-5.44,5.44-5.44h7.28c0.28,0,0.5,0.22,0.5,0.5    v13.6C17.89,31.75,17.67,31.97,17.39,31.97z M10.11,18.37c-2.45,0-4.44,1.99-4.44,4.44v3.84c0,2.38,1.94,4.32,4.32,4.32h6.91    v-12.6H10.11z"/></g><g><path class="st3" d="M17.39,31.51c4.01,2.41,8.02,4.81,12.04,7.22V9.27c-4.02,2.92-8.04,5.83-12.06,8.75    C17.38,22.52,17.38,27.01,17.39,31.51z"/><path class="st1" d="M29.43,39.23c-0.09,0-0.18-0.02-0.26-0.07l-12.04-7.22c-0.15-0.09-0.24-0.25-0.24-0.43l-0.02-13.49    c0-0.16,0.08-0.31,0.21-0.41l12.05-8.75c0.15-0.11,0.35-0.13,0.52-0.04c0.17,0.08,0.27,0.26,0.27,0.45v29.46    c0,0.18-0.1,0.35-0.25,0.44C29.6,39.21,29.51,39.23,29.43,39.23z M17.89,31.22l11.04,6.62v-27.6l-11.05,8.02L17.89,31.22z"/></g><g><path class="st2" d="M29.6,27.92c1.79,0,3.25-1.45,3.25-3.25s-1.45-3.25-3.25-3.25V27.92z"/><path class="st1" d="M29.6,28.42c-0.28,0-0.5-0.22-0.5-0.5v-6.5c0-0.28,0.22-0.5,0.5-0.5c2.07,0,3.75,1.68,3.75,3.75    S31.66,28.42,29.6,28.42z M30.1,21.97v5.4c1.28-0.24,2.25-1.36,2.25-2.7C32.35,23.32,31.37,22.2,30.1,21.97z"/></g><g><path class="st1" d="M40.34,36.03c-0.08,0-0.16-0.02-0.23-0.06c-0.25-0.13-0.34-0.43-0.21-0.67c1.6-3.09,2.44-6.64,2.44-10.25    c0-3.63-0.85-7.18-2.46-10.28c-0.13-0.25-0.03-0.55,0.21-0.67c0.25-0.13,0.55-0.03,0.67,0.21c1.68,3.24,2.57,6.96,2.57,10.74    c0,3.77-0.88,7.48-2.55,10.71C40.7,35.93,40.52,36.03,40.34,36.03z"/></g><g><path class="st1" d="M37.28,34.21c-0.06,0-0.13-0.01-0.19-0.04c-0.26-0.1-0.38-0.4-0.28-0.65c1.08-2.66,1.62-5.51,1.62-8.47    c0-3.13-0.61-6.12-1.8-8.91c-0.11-0.25,0.01-0.55,0.26-0.66c0.25-0.11,0.55,0.01,0.66,0.26c1.25,2.91,1.89,6.04,1.89,9.3    c0,3.09-0.57,6.06-1.7,8.85C37.66,34.09,37.48,34.21,37.28,34.21z"/></g><g><path class="st1" d="M34.77,31.69c-0.04,0-0.09-0.01-0.13-0.02c-0.27-0.07-0.42-0.35-0.35-0.61c0.53-1.94,0.79-3.96,0.79-6    c0-2.19-0.3-4.34-0.9-6.4c-0.08-0.26,0.07-0.54,0.34-0.62c0.26-0.08,0.54,0.07,0.62,0.34c0.63,2.15,0.94,4.4,0.94,6.68    c0,2.14-0.28,4.25-0.83,6.27C35.19,31.54,34.99,31.69,34.77,31.69z"/></g></g></svg>